# xmcd CD database file
#
# Track frame offsets:
#	150
#	14385
#	32920
#	49243
#	68703
#	87145
#	106998
#	121740
#	141188
#	163083
#
# Disc length: 2492 seconds
#
# Revision: 2
# Processed by: cddbd v1.5PL3 Copyright (c) Steve Scherf et al.
# Submitted via: CDex 1.50beta8
#
DISCID=8009ba0a
DTITLE=杏里 - TIMELY!!
DYEAR=1983
DGENRE=JPop
TTITLE0=CAT'S EYE(NEW TAKE)
TTITLE1=WINDY SUMMER
TTITLE2=STAY BY ME
TTITLE3=A HOPE FROM SAD STREET
TTITLE4=YOU ARE NOT ALONE
TTITLE5=悲しみがとまらない
TTITLE6=SHYNESS BOY
TTITLE7=LOST LOVE IN THE RAIN
TTITLE8=DRIVING MY LOVE
TTITLE9=GOOD-NIGHT FOR YOU
EXTD=YEAR: 1983/12/5
EXTT0=
EXTT1=
EXTT2=
EXTT3=
EXTT4=
EXTT5=
EXTT6=
EXTT7=
EXTT8=
EXTT9=
PLAYORDER=
